# xmcd
# Track frame offsets:
# 150
# 7918
# 11859
# 34541
# 35578
# 53499
# 58443
# 70140
# 94395
# 97413
# 103491
# 106594
# 127435
# 132482
# 150752
# 160756
# 163623
# 187333
# 189781
# 211155
# 223836
# 251819
#
# Disc length: 3678 seconds
# Revision: 0
# Processed by: cddbd v1.5.1PL0 Copyright (c) Steve Scherf et al.
# Submitted via: VisiTrax 2.9.10.228 - For more info visit www.synapsa.com
#
DISCID=420e5c16
DTITLE=Hariin.Murray. - Muz!
DYEAR=2003
DGENRE=Bush Poetry
TTITLE0=Telephone.
TTITLE1=Intro.
TTITLE2=Turbulence.
TTITLE3=Intro.
TTITLE4=Dr.Death.
TTITLE5=Best Bloke.
TTITLE6=Intro.
TTITLE7=Hog Whisperer.The.
TTITLE8=Intro.
TTITLE9=Mates.
TTITLE10=Intro.
TTITLE11=A - Z.
TTITLE12=Intro.
TTITLE13=Fishin' For Cod.
TTITLE14=Big Jack.
TTITLE15=Intro.
TTITLE16=Ripsnorter.The.
TTITLE17=Intro.
TTITLE18=Wave Of Disbelief.
TTITLE19=C.wap.
TTITLE20=Out Takes and Stuff Ups.
TTITLE21=C.wap (Extended Whack-up mix)
EXTD=
EXTT0=
EXTT1=
EXTT2=
EXTT3=
EXTT4=
EXTT5=
EXTT6=
EXTT7=
EXTT8=
EXTT9=
EXTT10=
EXTT11=
EXTT12=
EXTT13=
EXTT14=
EXTT15=
EXTT16=
EXTT17=
EXTT18=
EXTT19=
EXTT20=
EXTT21=
PLAYORDER=
